<svg width="1400" height="900" xmlns="http://www.w3.org/2000/svg">
  <!-- Background -->
  <rect width="1400" height="900" fill="#0a0a0a"/>
  
  <!-- Left Sidebar (20%) -->
  <rect x="0" y="0" width="280" height="900" fill="#141414" stroke="#262626" stroke-width="2"/>
  <text x="140" y="40" font-size="20" fill="#ffffff" text-anchor="middle" font-weight="bold">Navigation Sidebar</text>
  
  <!-- Model items -->
  <rect x="20" y="100" width="240" height="60" fill="#1a1a1a" stroke="#3b82f6" stroke-width="2" rx="8"/>
  <text x="40" y="125" font-size="14" fill="#ffffff">E2E Test Model</text>
  <circle cx="240" cy="130" r="8" fill="#10b981"/>
  
  <!-- Implementation marker 1: Fix Sidebar Toggle -->
  <rect x="10" y="80" width="260" height="100" fill="none" stroke="#ef4444" stroke-width="3" stroke-dasharray="5,5" rx="8"/>
  <text x="140" y="195" font-size="12" fill="#ef4444" text-anchor="middle" font-weight="bold">🔴 #1: FIX SIDEBAR TOGGLE</text>
  <text x="140" y="210" font-size="10" fill="#ef4444" text-anchor="middle">Add modal to show Trading Form</text>
  
  <!-- Create Model button -->
  <rect x="20" y="250" width="240" height="40" fill="#1a1a1a" stroke="#404040" stroke-width="1" rx="8"/>
  <text x="140" y="275" font-size="14" fill="#a3a3a3" text-anchor="middle">+ Create Model</text>
  
  <!-- Implementation marker 3: Enhance Model Creation -->
  <rect x="10" y="240" width="260" height="60" fill="none" stroke="#f59e0b" stroke-width="3" stroke-dasharray="5,5" rx="8"/>
  <text x="140" y="315" font-size="12" fill="#f59e0b" text-anchor="middle" font-weight="bold">🟡 #3: ENHANCE CREATION</text>
  <text x="140" y="330" font-size="10" fill="#f59e0b" text-anchor="middle">Add stock universe, rules, instructions</text>
  
  <!-- Admin button -->
  <rect x="20" y="800" width="240" height="40" fill="#1a1a1a" stroke="#404040" stroke-width="1" rx="8"/>
  <text x="140" y="825" font-size="14" fill="#a3a3a3" text-anchor="middle">🛡️ Admin</text>
  
  <!-- Implementation marker 5: Admin Dashboard (Later) -->
  <rect x="10" y="790" width="260" height="60" fill="none" stroke="#9333ea" stroke-width="3" stroke-dasharray="5,5" rx="8"/>
  <text x="140" y="865" font-size="12" fill="#9333ea" text-anchor="middle" font-weight="bold">🟣 #5: ADMIN (LAST)</text>
  
  <!-- Center Column - Chat (50%) -->
  <rect x="280" y="0" width="700" height="900" fill="#0a0a0a" stroke="#262626" stroke-width="2"/>
  <text x="630" y="40" font-size="20" fill="#ffffff" text-anchor="middle" font-weight="bold">AI Assistant / Chat</text>
  
  <!-- Chat message -->
  <rect x="300" y="80" width="660" height="80" fill="#1a1a1a" rx="8"/>
  <circle cx="330" cy="110" r="20" fill="#3b82f6"/>
  <text x="360" y="110" font-size="14" fill="#ffffff">Good morning! How can I help you with your trading today?</text>
  <rect x="320" y="140" width="100" height="25" fill="#262626" rx="4"/>
  <text x="370" y="157" font-size="11" fill="#a3a3a3" text-anchor="middle">Show stats</text>
  
  <!-- Trading Form area -->
  <rect x="300" y="200" width="660" height="300" fill="#1a1a1a" stroke="#404040" stroke-width="1" rx="8"/>
  <text x="630" y="230" font-size="16" fill="#ffffff" text-anchor="middle" font-weight="bold">Trading Form (NOW HAS DAILY/INTRADAY ✅)</text>
  <text x="630" y="260" font-size="12" fill="#10b981" text-anchor="middle">✅ Already implemented in previous session</text>
  
  <!-- Right Panel - Context Panel (30%) -->
  <rect x="980" y="0" width="420" height="900" fill="#0a0a0a" stroke="#262626" stroke-width="2"/>
  <text x="1190" y="40" font-size="20" fill="#ffffff" text-anchor="middle" font-weight="bold">Context Panel</text>
  
  <!-- Model Details -->
  <rect x="1000" y="60" width="380" height="120" fill="#1a1a1a" rx="8"/>
  <text x="1010" y="85" font-size="14" fill="#ffffff" font-weight="bold">Model Details</text>
  <text x="1010" y="110" font-size="12" fill="#a3a3a3">AI Model: N/A</text>
  <text x="1010" y="130" font-size="12" fill="#a3a3a3">Trading Mode: paper</text>
  <text x="1010" y="150" font-size="12" fill="#a3a3a3">Created: 11/2/2025</text>
  
  <!-- Live Updates -->
  <rect x="1000" y="200" width="380" height="150" fill="#1a1a1a" rx="8"/>
  <text x="1010" y="225" font-size="14" fill="#ffffff" font-weight="bold">Live Updates</text>
  <circle cx="1370" cy="220" r="5" fill="#10b981"/>
  <text x="1350" y="225" font-size="11" fill="#10b981">Streaming</text>
  <text x="1190" y="280" font-size="12" fill="#737373" text-anchor="middle">Waiting for trading activity...</text>
  
  <!-- Implementation marker 4: Add TradingFeed -->
  <rect x="990" y="190" width="400" height="170" fill="none" stroke="#10b981" stroke-width="3" stroke-dasharray="5,5" rx="8"/>
  <text x="1190" y="375" font-size="12" fill="#10b981" text-anchor="middle" font-weight="bold">🟢 #4: ADD TRADING FEED</text>
  <text x="1190" y="390" font-size="10" fill="#10b981" text-anchor="middle">Show live trades with details</text>
  
  <!-- Positions -->
  <rect x="1000" y="410" width="380" height="100" fill="#1a1a1a" rx="8"/>
  <text x="1010" y="435" font-size="14" fill="#ffffff" font-weight="bold">Positions</text>
  <text x="1190" y="470" font-size="12" fill="#737373" text-anchor="middle">No positions yet</text>
  <text x="1190" y="490" font-size="11" fill="#525252" text-anchor="middle">Start trading to see positions</text>
  
  <!-- All Runs -->
  <rect x="1000" y="530" width="380" height="180" fill="#1a1a1a" rx="8"/>
  <text x="1010" y="555" font-size="14" fill="#ffffff" font-weight="bold">All Runs</text>
  <text x="1370" y="555" font-size="11" fill="#737373">3 total</text>
  
  <!-- Run items -->
  <rect x="1010" y="570" width="360" height="50" fill="#141414" rx="4"/>
  <text x="1020" y="590" font-size="12" fill="#ffffff">Run #3 ⚡ Intraday</text>
  <text x="1020" y="608" font-size="10" fill="#737373">13 trades • completed</text>
  <text x="1360" y="590" font-size="12" fill="#10b981" text-anchor="end">0.04%</text>
  
  <!-- Implementation marker 2: Add Logs Viewer -->
  <rect x="990" y="720" width="400" height="160" fill="none" stroke="#3b82f6" stroke-width="3" stroke-dasharray="5,5" rx="8"/>
  <text x="1190" y="750" font-size="14" fill="#3b82f6" text-anchor="middle" font-weight="bold">🔵 #2: ADD LOGS VIEWER</text>
  <text x="1190" y="770" font-size="11" fill="#3b82f6" text-anchor="middle">New section showing real-time logs</text>
  <text x="1190" y="790" font-size="10" fill="#3b82f6" text-anchor="middle">• AI decisions</text>
  <text x="1190" y="805" font-size="10" fill="#3b82f6" text-anchor="middle">• Trade executions</text>
  <text x="1190" y="820" font-size="10" fill="#3b82f6" text-anchor="middle">• System events</text>
  <text x="1190" y="835" font-size="10" fill="#3b82f6" text-anchor="middle">• Errors/warnings</text>
  <text x="1190" y="860" font-size="9" fill="#3b82f6" text-anchor="middle" font-style="italic">(Port LogsViewer.tsx from frontend)</text>
  
  <!-- Legend -->
  <rect x="50" y="400" width="200" height="160" fill="#0a0a0a" stroke="#404040" stroke-width="1" rx="8"/>
  <text x="150" y="425" font-size="13" fill="#ffffff" text-anchor="middle" font-weight="bold">Implementation Order</text>
  
  <rect x="60" y="440" width="15" height="15" fill="none" stroke="#ef4444" stroke-width="2"/>
  <text x="85" y="452" font-size="11" fill="#ef4444">#1 Fix Sidebar Toggle (30min)</text>
  
  <rect x="60" y="465" width="15" height="15" fill="none" stroke="#3b82f6" stroke-width="2"/>
  <text x="85" y="477" font-size="11" fill="#3b82f6">#2 Add Logs Viewer (1hr)</text>
  
  <rect x="60" y="490" width="15" height="15" fill="none" stroke="#f59e0b" stroke-width="2"/>
  <text x="85" y="502" font-size="11" fill="#f59e0b">#3 Enhance Creation (1-2hr)</text>
  
  <rect x="60" y="515" width="15" height="15" fill="none" stroke="#10b981" stroke-width="2"/>
  <text x="85" y="527" font-size="11" fill="#10b981">#4 Add Trading Feed (1hr)</text>
  
  <rect x="60" y="540" width="15" height="15" fill="none" stroke="#9333ea" stroke-width="2"/>
  <text x="85" y="552" font-size="11" fill="#9333ea">#5 Admin Dashboard (2-3hr)</text>
</svg>
